<svg width="100" height="60" viewBox="0 0 100 60" fill="none" xmlns="http://www.w3.org/2000/svg">
<path fill-rule="evenodd" clip-rule="evenodd" d="M27.1637 18.8678C26.3194 19.8811 24.9684 20.6803 23.6174 20.5661C23.4486 19.196 24.11 17.7403 24.884 16.8411C25.7283 15.7992 27.2059 15.0571 28.4021 15C28.5428 16.4272 27.994 17.8259 27.1637 18.8678ZM28.3879 20.8372C27.1977 20.7678 26.1117 21.2002 25.2346 21.5496C24.6701 21.7744 24.1921 21.9647 23.8284 21.9647C23.4203 21.9647 22.9226 21.7642 22.3637 21.539C21.6314 21.244 20.7942 20.9067 19.9163 20.9229C17.9039 20.9514 16.0323 22.1075 15.005 23.9486C12.8941 27.6308 14.4561 33.0827 16.4966 36.0799C17.4958 37.5642 18.692 39.1912 20.2681 39.1341C20.9615 39.1076 21.4603 38.8929 21.9765 38.6708C22.5707 38.415 23.1881 38.1493 24.1521 38.1493C25.0826 38.1493 25.673 38.4081 26.2397 38.6565C26.7786 38.8927 27.296 39.1195 28.0642 39.1056C29.6966 39.077 30.7239 37.6213 31.7231 36.137C32.8013 34.5439 33.2751 32.9891 33.347 32.7532L33.3555 32.7259C33.3538 32.7242 33.3404 32.718 33.3169 32.7071C32.9565 32.5397 30.2015 31.2606 30.1751 27.8306C30.1486 24.9516 32.3603 23.4929 32.7084 23.2633C32.7296 23.2493 32.7439 23.2399 32.7504 23.2349C31.3431 21.1227 29.1478 20.8943 28.3879 20.8372ZM39.6882 38.9486V16.6983H47.9206C52.1705 16.6983 55.1398 19.6669 55.1398 24.0057C55.1398 28.3444 52.1142 31.3415 47.808 31.3415H43.0937V38.9486H39.6882ZM43.0934 19.61H47.0196C49.9749 19.61 51.6636 21.2085 51.6636 24.0201C51.6636 26.8317 49.9749 28.4445 47.0056 28.4445H43.0934V19.61ZM66.3839 36.2796C65.4832 38.0208 63.499 39.1198 61.36 39.1198C58.1937 39.1198 55.9843 37.2073 55.9843 34.3244C55.9843 31.4699 58.1233 29.8286 62.0777 29.586L66.3276 29.3291V28.1017C66.3276 26.2892 65.1595 25.3044 63.0768 25.3044C61.36 25.3044 60.1075 26.2035 59.8542 27.5736H56.7864C56.8849 24.6907 59.5587 22.5927 63.1753 22.5927C67.0734 22.5927 69.6065 24.6621 69.6065 27.8734V38.9485H66.4542V36.2796H66.3839ZM62.2745 36.4796C60.4592 36.4796 59.3052 35.5947 59.3052 34.2389C59.3052 32.8402 60.4169 32.0267 62.5419 31.8983L66.3274 31.6556V32.9116C66.3274 34.9953 64.5824 36.4796 62.2745 36.4796ZM80.0622 39.8192C78.6971 43.7155 77.1351 45 73.814 45C73.5607 45 72.7163 44.9715 72.5193 44.9144V42.2455C72.7304 42.274 73.2511 42.3026 73.5185 42.3026C75.0242 42.3026 75.8686 41.6603 76.3893 39.9905L76.6989 39.0057L70.9291 22.8068H74.4895L78.5001 35.9515H78.5705L82.5812 22.8068H86.043L80.0622 39.8192Z" fill="black"/>
</svg>
