<svg width="16" height="16" viewBox="0 0 16 16" fill="none" xmlns="http://www.w3.org/2000/svg">
<g clip-path="url(#clip0_527_14)">
<path fill-rule="evenodd" clip-rule="evenodd" d="M13.3079 2.67206C11.9046 1.26709 10.0383 0.493011 8.05002 0.492188C3.95303 0.492188 0.618683 3.82645 0.617035 7.92453C0.616486 9.23456 0.95871 10.5134 1.60919 11.6406L0.554688 15.4922L4.49503 14.4586C5.58075 15.0508 6.80307 15.3629 8.047 15.3633H8.05011C12.1466 15.3633 15.4814 12.0287 15.4829 7.93048C15.4837 5.94434 14.7113 4.07693 13.3079 2.67206ZM8.05002 14.108H8.04745C6.93893 14.1075 5.85175 13.8096 4.90308 13.2469L4.67758 13.1129L2.33932 13.7263L2.96344 11.4466L2.8165 11.2128C2.19806 10.2292 1.87149 9.09229 1.87204 7.92499C1.87332 4.51877 4.64481 1.74756 8.05249 1.74756C9.70264 1.74811 11.2538 2.39154 12.4202 3.5593C13.5866 4.72705 14.2285 6.27924 14.228 7.93002C14.2265 11.3365 11.4552 14.108 8.05002 14.108ZM11.4388 9.48102C11.2531 9.388 10.3399 8.93884 10.1696 8.87677C9.99954 8.81479 9.87558 8.78394 9.75189 8.96979C9.62802 9.15564 9.27216 9.57404 9.16376 9.69791C9.05536 9.82187 8.94714 9.83743 8.76138 9.74442C8.57562 9.65149 7.97723 9.45529 7.26779 8.82257C6.71573 8.33011 6.34302 7.72192 6.23462 7.53607C6.1264 7.35004 6.2337 7.25922 6.3161 7.15704C6.51715 6.90738 6.71848 6.64563 6.78036 6.52176C6.84235 6.3978 6.81131 6.28931 6.7648 6.19638C6.71848 6.10345 6.34705 5.1893 6.19232 4.81732C6.04144 4.45532 5.88846 4.50421 5.77438 4.49854C5.66617 4.49313 5.5423 4.49203 5.41843 4.49203C5.29465 4.49203 5.09341 4.53845 4.92313 4.72449C4.75293 4.91043 4.27319 5.35968 4.27319 6.27383C4.27319 7.18799 4.93869 8.07111 5.03152 8.19507C5.12436 8.31903 6.34119 10.1949 8.20419 10.9993C8.64731 11.1909 8.99319 11.305 9.263 11.3906C9.70795 11.532 10.1127 11.512 10.4328 11.4642C10.7896 11.4109 11.5315 11.0149 11.6864 10.5811C11.8411 10.1472 11.8411 9.77545 11.7946 9.69791C11.7483 9.62045 11.6244 9.57404 11.4388 9.48102Z" fill="white"/>
</g>
<defs>
<clipPath id="clip0_527_14">
<rect width="16" height="16" fill="white"/>
</clipPath>
</defs>
</svg>
